<svg width="32" height="32" viewBox="0 0 32 32" fill="none" xmlns="http://www.w3.org/2000/svg">
<rect width="32" height="32" rx="10" fill="#EFF1F4"/>
<rect width="32" height="32" rx="10" fill="url(#paint0_linear)"/>
<g filter="url(#filter0_f)">
<path d="M1.5 6.32258L-2 8.49887L-4.64706 6.32145L-9 21.9989V32.4505L5.69118 39.9989L23.1029 38.2569L21 32.4505L28 24.9021L22 18.4989L23.1029 10.9666L14 9.99887L12.2206 5.16016L5.69118 10.9666L1.5 6.32258Z" fill="url(#paint1_linear)"/>
</g>
<path fill-rule="evenodd" clip-rule="evenodd" d="M35.7134 35.568C34.247 36.3009 32.5893 36.7137 30.834 36.7137C26.6196 36.7137 22.9673 34.3337 21.1762 30.8585C20.0798 31.8363 18.6491 32.428 17.084 32.428C13.6322 32.428 10.834 29.5498 10.834 25.9994C10.834 22.449 13.6322 19.5709 17.084 19.5709C18.6491 19.5709 20.0798 20.1626 21.1762 21.1403C22.9673 17.6652 26.6196 15.2852 30.834 15.2852C35.2917 15.2852 39.1205 17.9479 40.7831 21.753C41.8363 20.9219 43.154 20.428 44.584 20.428C48.0358 20.428 50.834 23.3062 50.834 26.8566C50.834 30.407 48.0358 33.2852 44.584 33.2852C43.3731 33.2852 42.2427 32.931 41.2853 32.3179C41.5292 32.7348 41.6673 33.2098 41.6673 33.7137C41.6673 35.3706 40.1749 36.7137 38.334 36.7137C37.2707 36.7137 36.3238 36.2657 35.7134 35.568Z" fill="url(#paint2_linear)"/>
<path fill-rule="evenodd" clip-rule="evenodd" d="M20.2202 7.76325C19.3158 6.12058 17.5041 4.99944 15.4167 4.99944C12.9457 4.99944 10.8611 6.57037 10.2105 8.71773C9.67647 8.01937 8.84749 7.57087 7.91667 7.57087C6.30584 7.57087 5 8.91401 5 10.5709C5 12.2277 6.30584 13.5709 7.91667 13.5709C8.97645 13.5709 9.90421 12.9895 10.4149 12.1199C11.2311 13.9786 13.1632 15.2852 15.4167 15.2852C16.0626 15.2852 16.6822 15.1778 17.2566 14.9808C17.5471 15.1707 17.9229 15.2852 18.3334 15.2852C19.2539 15.2852 20.0001 14.7095 20.0001 13.9994C20.0001 13.7313 19.8937 13.4824 19.7117 13.2763C19.7398 13.2417 19.7675 13.2066 19.7947 13.1713C20.223 13.4254 20.72 13.5709 21.25 13.5709C22.8609 13.5709 24.1667 12.2277 24.1667 10.5709C24.1667 8.91402 22.8609 7.57087 21.25 7.57087C20.8875 7.57087 20.5404 7.63891 20.2202 7.76325Z" fill="url(#paint3_linear)"/>
<defs>
<filter id="filter0_f" x="-12" y="2.16016" width="43" height="40.8387" filterUnits="userSpaceOnUse" color-interpolation-filters="sRGB">
<feFlood flood-opacity="0" result="BackgroundImageFix"/>
<feBlend mode="normal" in="SourceGraphic" in2="BackgroundImageFix" result="shape"/>
<feGaussianBlur stdDeviation="1.5" result="effect1_foregroundBlur"/>
</filter>
<linearGradient id="paint0_linear" x1="32" y1="0" x2="0" y2="0" gradientUnits="userSpaceOnUse">
<stop stop-color="#C9E7FF"/>
<stop offset="1" stop-color="#A3D4FA"/>
</linearGradient>
<linearGradient id="paint1_linear" x1="7.86765" y1="22" x2="25.9297" y2="7.67195" gradientUnits="userSpaceOnUse">
<stop stop-color="white" stop-opacity="0.83"/>
<stop offset="1" stop-color="#FFFDFD" stop-opacity="0"/>
</linearGradient>
<linearGradient id="paint2_linear" x1="52.148" y1="36.7137" x2="52.148" y2="13.8772" gradientUnits="userSpaceOnUse">
<stop stop-color="white" stop-opacity="0.01"/>
<stop offset="1" stop-color="white" stop-opacity="0.804348"/>
</linearGradient>
<linearGradient id="paint3_linear" x1="7.56554" y1="12.5316" x2="7.56554" y2="4.99944" gradientUnits="userSpaceOnUse">
<stop stop-color="white" stop-opacity="0.01"/>
<stop offset="1" stop-color="white" stop-opacity="0.804348"/>
</linearGradient>
</defs>
</svg>
