<?xml version="1.0" encoding="iso-8859-1"?>
<!-- Generator: Adobe Illustrator 19.0.0, SVG Export Plug-In . SVG Version: 6.00 Build 0)  -->
<svg version="1.1" id="Layer_1" xmlns="http://www.w3.org/2000/svg" xmlns:xlink="http://www.w3.org/1999/xlink" x="0px" y="0px"
	 viewBox="0 0 512 512" style="enable-background:new 0 0 512 512;" xml:space="preserve">
<circle style="fill:#FAC51C;" cx="256" cy="358.289" r="82.581"/>
<rect x="11.011" y="95.903" style="fill:#F15A29;" width="489.979" height="104.602"/>
<rect x="231.226" y="71.129" style="fill:#EFEFEF;" width="49.548" height="154.151"/>
<g>
	<path style="fill:#231F20;" d="M256,380.983c-12.515,0-22.695-10.182-22.695-22.695c0-6.081-4.93-11.011-11.011-11.011
		c-6.081,0-11.011,4.93-11.011,11.011c0,24.658,20.06,44.717,44.717,44.717c6.081,0,11.011-4.93,11.011-11.011
		C267.011,385.912,262.081,380.983,256,380.983z"/>
	<path style="fill:#231F20;" d="M164.393,130.311c-4.3-4.3-11.272-4.3-15.573,0l-1.101,1.101c-4.3,4.3-4.3,11.272,0,15.573
		c2.15,2.15,4.968,3.225,7.786,3.225s5.636-1.075,7.786-3.225l1.101-1.101C168.692,141.582,168.692,134.61,164.393,130.311z"/>
	<path style="fill:#231F20;" d="M440.454,150.208c2.818,0,5.636-1.075,7.786-3.225l1.101-1.101c4.3-4.3,4.3-11.272,0-15.572
		c-4.3-4.3-11.272-4.3-15.573,0l-1.101,1.101c-4.3,4.3-4.3,11.272,0,15.572C434.819,149.133,437.637,150.208,440.454,150.208z"/>
	<path style="fill:#231F20;" d="M500.989,84.896H291.785V71.132c0-6.081-4.93-11.011-11.011-11.011h-49.548
		c-6.081,0-11.011,4.93-11.011,11.011v13.763H11.011C4.93,84.896,0,89.825,0,95.906v104.602c0,6.081,4.93,11.011,11.011,11.011
		h209.204v13.763c0,6.081,4.93,11.011,11.011,11.011h13.763v29.072c-46.433,5.47-82.581,45.043-82.581,92.922
		c0,51.606,41.985,93.591,93.591,93.591s93.591-41.985,93.591-93.591c0-47.879-36.147-87.452-82.581-92.922v-29.072h13.763
		c6.081,0,11.011-4.93,11.011-11.011v-13.763h209.204c6.081,0,11.011-4.93,11.011-11.011V95.906
		C512,89.825,507.07,84.896,500.989,84.896z M120.778,189.498l13.45-13.45c4.3-4.3,4.3-11.272,0-15.573
		c-4.3-4.3-11.272-4.3-15.573,0l-29.022,29.022H22.022v-82.581h198.194v82.581H120.778z M327.57,358.286
		c0,39.464-32.106,71.57-71.57,71.57s-71.57-32.106-71.57-71.57c0-35.72,26.305-65.409,60.559-70.721v29.661
		c0,6.081,4.93,11.011,11.011,11.011c6.081,0,11.011-4.93,11.011-11.011v-29.661C301.265,292.877,327.57,322.566,327.57,358.286z
		 M269.763,214.272h-27.527V82.143h27.527V214.272z M489.979,189.498h-84.252l13.45-13.45c4.3-4.3,4.3-11.272,0-15.573
		c-4.3-4.301-11.272-4.3-15.573,0l-29.022,29.022h-82.796v-82.581h198.194V189.498z"/>
</g>
<g>
</g>
<g>
</g>
<g>
</g>
<g>
</g>
<g>
</g>
<g>
</g>
<g>
</g>
<g>
</g>
<g>
</g>
<g>
</g>
<g>
</g>
<g>
</g>
<g>
</g>
<g>
</g>
<g>
</g>
</svg>
